# xmcd
#
# Track frame offsets:
# 150
# 3761
# 15885
# 34060
# 53715
# 69286
# 88269
# 106807
# 127692
# 146073
# 158701
# 181128
# 195675
# 214685
# 233429
# 254702
# 294592
# 342321
#
# Disc length: 4564 seconds
#
#
# Revision: 1
# Processed by: cddbd v1.5.2PL0 Copyright (c) Steve Scherf et al.
# Submitted via: FreeRIP 2.70 
#
DISCID=ea11d212
DTITLE=מומי לוי - היפ סול
DYEAR=2004
DGENRE=Hip-Hop
TTITLE0=פתיחה
TTITLE1=היפ סול (ידיים באוויר)
TTITLE2=אוויר
TTITLE3=שטח ההפקר
TTITLE4=צלול
TTITLE5=הלילה
TTITLE6=זוז מצד לצד
TTITLE7=בתוך הדממה
TTITLE8=שמש אדומה
TTITLE9=סמוך על הלב
TTITLE10=מעבדות לחירות
TTITLE11=גם אם לפעמים
TTITLE12=קדימה
TTITLE13=תני לי מקום
TTITLE14=אפילו
TTITLE15=תני לי
TTITLE16=17
TTITLE17=18
EXTD=
EXTT0=
EXTT1=
EXTT2=
EXTT3=
EXTT4=
EXTT5=
EXTT6=
EXTT7=
EXTT8=
EXTT9=
EXTT10=
EXTT11=
EXTT12=
EXTT13=
EXTT14=
EXTT15=
EXTT16=
EXTT17=
PLAYORDER=
